# xmcd
#
# Track frame offsets: 
#        150
#        11153
#        22680
#        36993
#        49400
#        71682
#        88646
#        102225
#        114056
#        124308
#        135018
#        149008
#        167653
#        185579
#        199548
#        213663
#
# Disc length: 2998 seconds
#
# Revision: 0
# Processed by: cddbd v1.5.2PL0 Copyright (c) Steve Scherf et al.
# Submitted via: ExactAudioCopy v0.99pb4
#
DISCID=df0bb410
DTITLE=James Govan - Wanted: The Fame Recordings
DYEAR=2013
DGENRE=R&B
TTITLE0=Wanted: Lover (No Experience Necessary)
TTITLE1=You Left the Water Running
TTITLE2=Take Me Just As I Am
TTITLE3=I Bit off More Than I Can Chew
TTITLE4=Just Like a Woman
TTITLE5=Bye Bye Blackbird
TTITLE6=You Get a Lot to Like
TTITLE7=Your Love Lifted Me
TTITLE8=Oh Baby What You're Doing to Me
TTITLE9=I've Gone Too Far
TTITLE10=Something
TTITLE11=I Shall Be Released
TTITLE12=Way Over Yonder
TTITLE13=Stuck on Her
TTITLE14=Jambalaya
TTITLE15=That's Alright Mama
EXTD=
EXTT0=
EXTT1=
EXTT2=
EXTT3=
EXTT4=
EXTT5=
EXTT6=
EXTT7=
EXTT8=
EXTT9=
EXTT10=
EXTT11=
EXTT12=
EXTT13=
EXTT14=
EXTT15=
PLAYORDER=
